<svg width="185" height="120" viewBox="0 0 185 120" fill="none" xmlns="http://www.w3.org/2000/svg">
    <g clip-path="url(#clip0_109_3242)">
        <path fill-rule="evenodd" clip-rule="evenodd" d="M86.5905 59.6641V59.5289V56.6761V48.3955C78.096 45.7279 71.952 37.9776 71.952 28.8322C71.952 17.4802 81.4187 8.2777 93.0964 8.2777C104.774 8.2777 114.241 17.4802 114.241 28.8322C114.241 37.9776 108.097 45.7279 99.6023 48.3955V56.6761V59.5289V59.6641H122.916V51.28H111.403C118.33 46.0442 122.78 37.9052 122.78 28.7646C122.78 12.9689 109.49 0.164062 93.0964 0.164062C76.7026 0.164062 63.4128 12.9689 63.4128 28.7646C63.4128 37.9052 67.8632 46.0442 74.7899 51.28H63.2773V59.6641H86.5905Z" fill="white"/>
        <path d="M13.6726 100.143C15.5333 102.028 17.7805 102.97 20.4141 102.97C23.0477 102.97 25.2806 102.028 27.1127 100.143C28.9734 98.2294 29.9037 95.9304 29.9037 93.2457C29.9037 90.5611 28.9734 88.2763 27.1127 86.3913C25.2806 84.4778 23.0477 83.521 20.4141 83.521C17.7805 83.521 15.5333 84.4778 13.6726 86.3913C11.8405 88.2763 10.9244 90.5611 10.9244 93.2457C10.9244 95.9304 11.8405 98.2294 13.6726 100.143ZM31.5354 104.384C28.4724 107.44 24.7653 108.968 20.4141 108.968C16.0629 108.968 12.3414 107.44 9.2498 104.384C6.18678 101.3 4.65527 97.5868 4.65527 93.2457C4.65527 88.9046 6.18678 85.2061 9.2498 82.1502C12.3414 79.0657 16.0629 77.5234 20.4141 77.5234C24.7653 77.5234 28.4724 79.0657 31.5354 82.1502C34.6271 85.2061 36.1729 88.9046 36.1729 93.2457C36.1729 97.5868 34.6271 101.3 31.5354 104.384Z" fill="white"/>
        <path d="M40.3271 108.454V77.1807H46.2099V108.454H40.3271Z" fill="white"/>
        <path d="M60.3176 116.765H53.9196L58.1276 107.255L49.1104 87.0342H55.5513L61.3052 100.914L67.0161 87.0342H73.5L60.3176 116.765Z" fill="white"/>
        <path d="M103.4 108.454V97.1445C103.4 93.6887 102.169 91.9608 99.7067 91.9608C97.846 91.9608 96.472 92.8034 95.5845 94.4884C95.699 94.9739 95.7563 95.5166 95.7563 96.1163V108.454H89.8736V97.1445C89.8736 93.6887 88.6427 91.9608 86.1808 91.9608C85.3506 91.9608 84.5777 92.175 83.8621 92.6034C83.1464 93.0033 82.6025 93.5459 82.2304 94.2313V108.454H76.3477V87.0342H82.2304V88.705C83.4899 87.277 85.2361 86.563 87.469 86.563C89.9022 86.563 91.9204 87.5055 93.5234 89.3904C95.1551 87.5055 97.4882 86.563 100.523 86.563C103.414 86.563 105.589 87.4484 107.049 89.2191C108.538 90.9898 109.282 93.2889 109.282 96.1163V108.454H103.4Z" fill="white"/>
        <path d="M114.675 116.765V87.0342H120.558V88.5765C121.96 87.2341 123.792 86.563 126.054 86.563C129.146 86.563 131.679 87.6626 133.654 89.8617C135.658 92.0322 136.66 94.6598 136.66 97.7442C136.66 100.829 135.658 103.471 133.654 105.67C131.679 107.84 129.146 108.925 126.054 108.925C123.764 108.925 121.932 108.24 120.558 106.869V116.765H114.675ZM125.195 103.57C126.798 103.57 128.101 103.014 129.103 101.9C130.105 100.757 130.605 99.3722 130.605 97.7442C130.605 96.1163 130.105 94.7454 129.103 93.6316C128.101 92.4892 126.798 91.918 125.195 91.918C123.249 91.918 121.703 92.6891 120.558 94.2313V101.214C121.703 102.785 123.249 103.57 125.195 103.57Z" fill="white"/>
        <path d="M160.589 87.0342V108.454H154.706V106.741C153.304 108.197 151.543 108.925 149.425 108.925C146.705 108.925 144.573 108.069 143.027 106.355C141.51 104.613 140.751 102.314 140.751 99.4578V87.0342H146.634V98.4725C146.634 101.871 147.979 103.57 150.67 103.57C152.302 103.57 153.647 102.756 154.706 101.129V87.0342H160.589Z" fill="white"/>
        <path d="M173.466 108.925C169.401 108.925 166.452 107.555 164.62 104.813L168.656 101.386C169.687 103.042 171.29 103.87 173.466 103.87C174.124 103.87 174.682 103.742 175.14 103.485C175.598 103.228 175.827 102.842 175.827 102.328C175.827 101.871 175.627 101.5 175.226 101.214C174.854 100.9 174.095 100.586 172.95 100.272L171.362 99.8862C169.386 99.3722 167.884 98.5154 166.853 97.3158C165.851 96.1163 165.379 94.6883 165.436 93.0318C165.493 91.0898 166.266 89.5332 167.755 88.3623C169.272 87.1627 171.19 86.563 173.509 86.563C176.801 86.563 179.277 87.7625 180.937 90.1616L177.073 93.2889C176.071 92.0322 174.854 91.4039 173.423 91.4039C172.85 91.4039 172.349 91.5324 171.92 91.7895C171.49 92.0465 171.276 92.4035 171.276 92.8605C171.276 93.7173 171.977 94.3313 173.38 94.7026L175.398 95.3024C179.549 96.4162 181.624 98.6296 181.624 101.943C181.624 103.97 180.851 105.641 179.305 106.955C177.76 108.269 175.813 108.925 173.466 108.925Z" fill="white"/>
    </g>
    <defs>
        <clipPath id="clip0_109_3242">
            <rect width="185" height="119" fill="white" transform="translate(0 0.164062)"/>
        </clipPath>
    </defs>
</svg>
